<svg xmlns="http://www.w3.org/2000/svg" viewBox="210.8 481.6 256.3 180.7"><style>.st0{fill:#FFFFFF;}</style><path class="st0" d="M376 501h62v15.6h-62zm86.2 96.3s7.3-66.5-52.5-66.5-57 53.2-57.3 64.6c-.4 11.3 8 53 53.3 53s55-29.6 55-36.3h-29.7s-3.2 13-24.3 13c-26 0-25-27.5-25-27.5h80.3zm-54.2-42.3c23.2 0 24.2 23.2 24.2 23.2h-50c0-7 5.8-23.2 25.8-23.2z" id="e"/><path id="b" class="st0" d="M316.6 566.3c9-4.7 15-12.2 17.7-22 3.5-13 0-31.6-11.8-40-5.8-4-12.2-6.7-19-8.2-.6 0-9.8-1.2-9.8-1h-80v154.6h80c25.8 0 46.8-16 46.8-46.7 0-30.8-24-36.4-24-36.4zm-67.2-44.8h33.2s22-2.5 22 16.7c0 19-20.2 17.4-20.2 17.4h-35v-34zm35 101h-35v-41.2h33.2s25.3-3.2 25.3 19c0 24.3-23.8 22-23.8 22z"/></svg>