<svg xmlns="http://www.w3.org/2000/svg" viewBox="210.8 481.6 256.3 180.7"><style>.st0{fill:#D6708D;} .st1{fill:#FFFFFF;}</style><path class="st0" d="M338.6 661h2.3-3z"/><path class="st1" d="M370.8 648.7c-.2-7.3.2-30.4.2-30.4s-.2-12.8-7.5-19.3c.6.6 5.5-.7 6.4-1 2-.3 4-.8 6-1.4 4-1.2 9-2.8 13-5 8-4.3 15-10.7 19-19.5 3-7 5-15 5-24 0-12-1-23-11-34 0 0 6-13-2-30 0 0-14-2-31 12 0 0-25-8-56 0 0 0-18-13-31-11 0 0-7 12-1.8 30 0 1-4.5 6-5 7-3 5-5 10-5.8 16-2.7 17 1.4 36 13.5 48 0 0 9.2 12 36.5 15 0 0-6.4 6-7 15 0 0-8 3-12 3s-9.4 0-15.3-6c-2.5-2.2-4-6-6.5-9-2.4-3-5.4-5-8.7-7-4-1-7.6-2-11-1-1 0-1 .7-1.5 1-.6.8 0 1.6.2 2 1 2 3.2 3 5.2 4.8 4.6 3.7 8.3 9 10.3 14.4 2 5 6.4 9.5 11.5 12 5.3 3 11.5 3.6 18 3.5.3 0 9 0 9-1.2v21s-.7 4.8-4 5.7c9.4 3 20 4.4 30 4.5h3.4c11 0 21.6-2 31-5-2-.4-5-2-5-7z"/></svg>