<svg xmlns="http://www.w3.org/2000/svg" width="1920" height="1080" viewBox="0 0 1920 1080"><defs><style>.cls-1{fill:#006e2b;}.cls-2{fill:#fff;}</style></defs><title>Artboard 1</title><path class="cls-1" d="M0-1.8h1920v1081.8h-1920z"/><path class="cls-2" d="M1538.1 628.8c-8.5 2-15.2 4-15 17.5s1.7 21.3 3.7 27.6 7.2 8.7 12.4 8.8c.2-.9 6.1-16.2 6.1-16.2l1.5 15.6 2 11.6a2.1 2.1 0 0 0 3.1 1.3c4.4-2.8 13.3-10.3 16.1-26.4 3.8-21.8-3.6-35.5-7.8-38.3s-10.8-4.1-22.1-1.5zm23.5-111.3l-.9 25.4s2.9-7.3 9.4-10.1c3.6-1.6 10.5.2 11.2.3l-16.8-16.6a1.7 1.7 0 0 0-2.9 1zm-111.6 132.2c-13.8 3.3-27.7 16.2-34.5 23.2s-6.7 8.7-6.4 12.6 8.1 10.9 11.9 13.7 17 2.8 24.2-5.6c5.1-5.3 14.3-14 20-25.9l-11.2 3.7 10.9-11.4c.6-6.8-2.8-13.2-14.9-10.3zm194.7-.9c4.7-.8 17.4-2.6 27.7-12-2.4-2.4-7.9-6-11.2-8.2-9.8 2.7-16.8 8.4-20.3 15.4-1.7 4.1-.9 5.6 3.8 4.8zm107.6 84.2c-8.4-1.5-17.8-3.7-24.4-9.6a9.8 9.8 0 0 0 .7 5.9 11.9 11.9 0 0 0 4.1 5.3c2.3 1.5 5.4 2 8 2.6s5.8 1 8.7 1.4a96.7 96.7 0 0 0 30.7-.2 64.1 64.1 0 0 0 8.2-2 13.6 13.6 0 0 1 2.8-1c-3.8.2-7.7.1-11.5 0a177.6 177.6 0 0 1-27.3-2.4zm60.9 58.4c-2.1-6.4-2.2-44.4-2.2-44.4s-1.3-13.3-9.5-9.8-20.4 5.4-24.9 6.3-32.8 2.5-44.4-4c2 29.6 37.8 31.4 43 31.5h.5c.8.1 5 .4 16.8-2-7.1 4.5-23.2 4.9-24.6 5a4.3 4.3 0 0 0-.2 1.3 9.9 9.9 0 0 0 .4 2.6 3.6 3.6 0 0 0 .5.9c.2 0 .2.1.5.2a28.9 28.9 0 0 0 5.2 2.2 52.2 52.2 0 0 0 13.5 2.5 3.9 3.9 0 0 1-1.9.6l-1.5.2-3.3.2c-2.2 0-4.5.1-6.9 0l-5-.4a36.4 36.4 0 0 0-5-.4 2.4 2.4 0 0 0-1.1.2l-36 11.4-11.5 3.7c-.7.2-3.3-2.1-3.9-2.5a33.3 33.3 0 0 1-7.6-8.2 25.7 25.7 0 0 1-2.4-23.8c5.4-13.4 12.8-25.6 21-37.5l1.1-1.5c6.4-7.6 15-18.2 31.1-19.9 7.2-1.4 14.2-4.7 12-14.7-1.4-6.9-2.7-15-3.9-21.6s-6.7-4.6-10.8-7.5-17.6-16.5-14.8-39.4c.9-7.2 3-10.8-2.7-14.9-3.3-2.8-9.1-8.1-12.6-16.1s-12-9.2-15.7-1.3c-14.1 20.6-27.2 23.8-27.2 23.8s-6.4-1.5-8.2.6l.6 6.2s-6.2-2-7.7.8l2.4 5.9 10.7 6.7a2.5 2.5 0 0 1 .1 4.1 64.9 64.9 0 0 1-15.2 8.6c5.6 5.4 13 9.5 21.1 7.8a23.1 23.1 0 0 0 7.7-3.2c2.7-1.7 4.6-4 7.1-6a26.8 26.8 0 0 1 4.5-3l2.4-1.1c.6-.2 1.9-.1 2.4-.5-3.9 2.5-6.7 7.1-9.2 10.9a35.3 35.3 0 0 0-2.6 4.1c-1.5 3.6-1.4 8.1-1.3 12 .2 8.4.8 17.4 10.4 20.7 6.9 2.6 17.4 4.6 24.7 1.7-8.5 7.9-22 3.2-32.1 3.4-7.7.2-11 5.6-11.7 12.6s-.6 11.4-4.1 21.8-15.7 27.6-22 31.3-16.3 7.1-27.1-2.8c-13.7-12.3-10.9-25.1-9.2-31.9s5.8-23.7 19.8-39c7.7-7.8 5.3-16.3-.1-24.4s-9.9-21.4-12-32.4-.8-22.6 2.8-34.2c1.9-8.8 4.1-15.9-17.4-22.3-11.2-3.8-23.6-29.1-29.8-32.9s-15.9-7.6-22.1 7.9c-5.1 13-3.4 31.3 3.8 43.1 6.2 10.2 16 15 27.6 15.6-4.4 2.6-16 1.8-16 1.8a29.2 29.2 0 0 1-2 10.8l7.1-.7a4.6 4.6 0 0 1 5.1 4 13.1 13.1 0 0 1-7.3 13.4c-2.7 1.2-5 2.4-5.4 3.3a4.7 4.7 0 0 0-.2 2.8c.1 1.7.4 3.2.6 4.9.7 3.7 1.5 7.2 2.6 10.9.4.9.6 2 .9 3.1s1.4 1.4 2.2 1.9l3.6 2a39.2 39.2 0 0 0 10.9 3.6 25.6 25.6 0 0 0 9.9-.2c-7.5 7-25.8 3-25.8 3-4.1 4.4-4.1 10.5 0 16.8-.5 4-4.1 35.8-9.1 45.1s-38.7 16.1-38.8 16.1 1.7-6.7 1.9-7.2c1.2-3.3 3.8-6 4.9-9.5a13.2 13.2 0 0 0-1.7-10.1c-2.4-4-5.9-6.9-9.1-10.1-6.2-6.2-4.7-32.2-4.7-32.2-7.9-14-10.4-30.7-6-46.2a14.6 14.6 0 0 1 2.7-5.8c3.7-4.5 13.9-4.5 19.2-5.4 2.4-.5 5.4-.5 7.3-2s3.9-7.6 2-10.7-6.3-4.6-10.1-4.5a118.7 118.7 0 0 0-17.2 1.5c10.3-7 16.9-5.7 17.3-5.6-1.5-3.2-3.1-7.8-2-16.3.5-4.7-1.9-9.8-12-8.5s-22.1 4.4-33 7.8-9.9 10.3-8.8 16.3 3.3 15 3 22.6-7 20.2-7.5 29.5 10.2 23.4 10.1 30.8-7.9 17.3-9.6 25.9 4.7 18.1 3.1 28.8c-1.3 8.2-7.2 13.6-14.3 17.3-13.6 7.2-28.1 9.9-43.3 9.7-7-.1-14.1-.4-21.1-.7l-10.2-.6c-2.4-.2-6.5-1.4-8.8-.7 62.8-19.1 59.8-63.2 59.8-63.2l-2.6 1.5a32.9 32.9 0 0 1-5.8 2.8c-4.6 1.4-10.4 2-15 .9-6.9-1.4-11.2-6.6-14.8-12.3-3.8-2-8.8-.6-11.6 1.8l-4.1 8.9-2.8 24.7s-2.5-22.7-2.6-24.7a11 11 0 0 0-5.2 1.5c-4.1 2.7-3.3 9.7-4.3 13.9 0 1.7 1.1 18.9 1.1 18.9l-5-12.6a77.1 77.1 0 0 1-8.1 7.5 111.5 111.5 0 0 1-17.1 12.1c-3.4 1.9-6.2 5.2-6 9.2s3.8 8.1 5.8 11.5a111.1 111.1 0 0 1 11.1 26.9c2.6 6.4 7.1 5.1 10.3 4.6l8.4-1.2a61.8 61.8 0 0 0 16.8-6.3c-3.7 7.6-11.6 12.3-12.7 12.7 3.3 4.7 6.9 10.2 8.5 12.7s3.3 7.1 17.6 5.7c4.7-1.2 9-1.8 13.3 6a60.7 60.7 0 0 0 4.5 6.7 9.6 9.6 0 0 0 6.4 4c2.6.4 5.1-.7 7.5-1.8 5.7-2.5 11.5-4.9 17.1-7.8-3.9 7.9-17.9 18.1-17.9 18.1a131.3 131.3 0 0 1 13.7 37.2c3.2 17.8-3.2 34.6-4.3 45.7-2.1 16.6 11.7 13.5 15 27.2.7 3.3 4.1 4.7 7.2 4.7 6.5 0 12.3-3.2 18.7-.9s13.4 10.2 21.4 7.7c3-.9 5.6-2.8 8.1-4.6 10.8-8.1 21.1-16.8 31.4-25.6-5.2 5.8-9.6 12.6-14.9 18.1s-9.8 9.9-15.7 13.9c-3.3 2.2-8.6 4.5-12.8 4s-9-2.8-13.1-5.2a12.9 12.9 0 0 0-6.6-1.8c.6 0 .2 3.8.2 4.4a21.3 21.3 0 0 1-1.1 5.3c-2.1 5.7-6.6 10.5-10.8 14.4a46.2 46.2 0 0 1-6 4.7l-.4.2 19.9 7.9a105.1 105.1 0 0 1-13.4 6.4c3.6 4.1 12 3.6 12 3.6l1.1 30.7 14.3-16.8-16.3 53.8h172.5v-29.6c.1-5.3.1-23.1 6.4-37.4a31.1 31.1 0 0 1-6.7.8 13.2 13.2 0 0 1-14.8-11.6l-.6-4a2.5 2.5 0 0 1 2.2-2.8l23.9-3.1c-12.6-5.2-18-19.4-18.9-25.7 19.1-7.9 20-8.5 20.6-22.7s2.2-25.9 10.3-39.3 17.5-17.2 27.8-20.7c7.3-2.5 7.9-.9 10.7-10.8s8.2-16.8 11.8-24.4 4.3-9.4 16.2-16.7 25.5-14.8 60.7-22c8.5-.6 10.4-4.5 5-19.2zm-75.9-99.8c1.8 9-18.5 18.5-29.7 9.7 11.6.3 20.7-1.8 29.7-9.7zm-211.6-104.6c-11.5-.4-20.6 1.8-29.6 9.7 2.6-13.5 20.6-16.8 29.6-9.7zm-26.1 18.2c1.2-11.5 20-17.5 29.7-9.6-11.6-.4-20.7 1.8-29.7 9.6zm116.6 65c-1.3 11.5-20.1 17.6-29.7 9.7 13.5 1.5 28.1-7.1 29.8-9.7z"/></svg>